# xmcd CD database file
#
# Track frame offsets:
#	150
#	18768
#	38052
#	52785
#	70876
#	90897
#	109439
#	134385
#	155473
#
# Disc length: 2529 seconds
#
# Revision: 0
# Processed by: cddbd v1.5.2PL0 Copyright (c) Steve Scherf et al.
# Submitted via: CDex 1.77
#
DISCID=6609df09
DTITLE=Cobalt Rhythm Kings - Hot Like Red Pepper
DYEAR=2001
DGENRE=Blues
TTITLE0=Juicy Fruit
TTITLE1=Your Hoodoo Man
TTITLE2=Cross Eyeded Mama
TTITLE3=Tougher Than That
TTITLE4=Lover's Rock
TTITLE5=Howlin' For My Baby
TTITLE6=King of the Boogie
TTITLE7=Louisiana Bayou
TTITLE8=Bad Avenue
EXTD=YEAR: 2001
EXTT0=
EXTT1=
EXTT2=
EXTT3=
EXTT4=
EXTT5=
EXTT6=
EXTT7=
EXTT8=
PLAYORDER=
